<svg xmlns="http://www.w3.org/2000/svg" width="63.049" height="63.049" viewBox="0 0 63.049 63.049"><g id="Group_199" data-name="Group 199" transform="translate(-762.474 -7602.476)"><g id="Group_193" data-name="Group 193" transform="translate(678.439 7588.511)"><path id="Path_324" data-name="Path 324" d="M132.417,13.965H98.7A14.672,14.672,0,0,0,84.035,28.632V62.347A14.672,14.672,0,0,0,98.7,77.014h33.715a14.672,14.672,0,0,0,14.667-14.667V28.632a14.673,14.673,0,0,0-14.668-14.667Z" transform="translate(0 0)" fill="#f5f5f7"></path><path id="Path_325" data-name="Path 325" d="M242.394,183.563a1.83,1.83,0,1,0-2.588,2.588l6.5,6.5H224.142a1.855,1.855,0,0,0-1.858,1.858,1.814,1.814,0,0,0,1.858,1.858h22.167l-6.5,6.5a1.8,1.8,0,0,0,0,2.588,1.853,1.853,0,0,0,1.327.531,1.972,1.972,0,0,0,1.327-.531l9.557-9.623a1.8,1.8,0,0,0,0-2.588Z" transform="translate(-121.865 -149.015)" fill="#151516"></path></g></g></svg>