<?xml version="1.0" encoding="UTF-8"?>
<svg xmlns="http://www.w3.org/2000/svg" width="95.657" height="62.238" viewBox="0 0 95.657 62.238">
  <g id="Group_191" data-name="Group 191" transform="translate(917.504 -176.646)">
    <path id="Path_89" data-name="Path 89" d="M-889.565,194.88a1.132,1.132,0,0,1-.73-.587,1.132,1.132,0,0,1-.038-.935,26.475,26.475,0,0,1,5.917-8.641,4.472,4.472,0,0,0,.171-6.186l-.387-.43a4.467,4.467,0,0,0-3.293-1.455,4.457,4.457,0,0,0-2.043.5c-27.753,14.573-27.756,34.39-27.475,38.215a1.141,1.141,0,0,1,0,.193l-.021.211c-.02.264-.037.525-.037.777a22.369,22.369,0,0,0,22.344,22.344,22.471,22.471,0,0,0,22.389-22.39A22.313,22.313,0,0,0-889.565,194.88Zm-5.6,42.043a20.4,20.4,0,0,1-20.382-20.382c0-.188,0-.417.02-.646v-.58c-.28-3.732-.227-22.423,26.428-36.417a2.276,2.276,0,0,1,1.117-.277h0a2.422,2.422,0,0,1,1.873.856l.365.405a2.511,2.511,0,0,1-.1,3.48,27.279,27.279,0,0,0-7.21,11.8,1.089,1.089,0,0,0,.143.811.943.943,0,0,0,.657.409,20.475,20.475,0,0,1,17.475,20.16A20.405,20.405,0,0,1-895.16,236.923Z" fill="#f56900"></path>
    <path id="Path_90" data-name="Path 90" d="M-754.6,194.9a1.131,1.131,0,0,1-.73-.586,1.132,1.132,0,0,1-.038-.936,26.486,26.486,0,0,1,5.916-8.641,4.471,4.471,0,0,0,.171-6.186l-.387-.43a4.461,4.461,0,0,0-3.309-1.475,4.381,4.381,0,0,0-2.023.5c-27.757,14.576-27.76,34.393-27.479,38.217a1.141,1.141,0,0,1,0,.193l-.02.211c-.02.264-.037.525-.037.777A22.369,22.369,0,0,0-760.2,238.886a22.432,22.432,0,0,0,22.389-22.367A22.315,22.315,0,0,0-754.6,194.9Zm-5.6,42.023a20.4,20.4,0,0,1-20.382-20.382c0-.188,0-.417.02-.646v-.58c-.279-3.732-.226-22.424,26.428-36.417a2.277,2.277,0,0,1,1.117-.277h0a2.382,2.382,0,0,1,1.884.89l.354.394a2.5,2.5,0,0,1-.1,3.459,27.28,27.28,0,0,0-7.21,11.8,1.089,1.089,0,0,0,.143.811.943.943,0,0,0,.657.409,20.475,20.475,0,0,1,17.475,20.16A20.405,20.405,0,0,1-760.2,236.924Z" transform="translate(-84.036 -0.001)" fill="#f56900"></path>
  </g>
</svg>
