<svg xmlns="http://www.w3.org/2000/svg" xmlns:xlink="http://www.w3.org/1999/xlink" id="Component_39_4" data-name="Component 39 &#x2013; 4" width="94" height="94" viewBox="0 0 94 94"><defs><linearGradient id="linear-gradient" x1="-0.266" y1="-0.28" x2="0.5" y2="1" gradientUnits="objectBoundingBox"><stop offset="0" stop-color="#f56900"></stop><stop offset="1" stop-color="#f23231"></stop></linearGradient></defs><g id="Rectangle_392" data-name="Rectangle 392" stroke="#707070" stroke-width="1" fill="url(#linear-gradient)"><path d="M20,0H84A10,10,0,0,1,94,10V64A30,30,0,0,1,64,94H10A10,10,0,0,1,0,84V20A20,20,0,0,1,20,0Z" stroke="none"></path><path d="M20,.5H84A9.5,9.5,0,0,1,93.5,10V64A29.5,29.5,0,0,1,64,93.5H10A9.5,9.5,0,0,1,.5,84V20A19.5,19.5,0,0,1,20,.5Z" fill="none"></path></g><g id="Group_347" data-name="Group 347" transform="translate(-56.166 13.265)"><path id="Path_2473" data-name="Path 2473" d="M103,219.5a12.754,12.754,0,0,0,9.03-3.742l.98-.98a4.492,4.492,0,0,0-.882-7.041l-6.06-3.627a4.838,4.838,0,0,0-5.9.738L98.9,206.113a19.149,19.149,0,0,1-9.619-9.625l1.269-1.269a4.838,4.838,0,0,0,.738-5.9l-3.61-6.072a4.491,4.491,0,0,0-7.03-.888l-.98.98a12.774,12.774,0,0,0-2.8,13.839A38.8,38.8,0,0,0,98.2,218.517a12.828,12.828,0,0,0,4.792.98ZM79.514,196.136a9.905,9.905,0,0,1,2.145-10.754l.98-.98a1.612,1.612,0,0,1,1.153-.479H84a1.6,1.6,0,0,1,.946.455,1.672,1.672,0,0,1,.254.323l3.61,6.072a1.972,1.972,0,0,1-.3,2.4l-1.372,1.39a2.619,2.619,0,0,0-.577,2.918A22.01,22.01,0,0,0,97.892,208.8a2.62,2.62,0,0,0,2.924-.576l1.378-1.378h0a1.972,1.972,0,0,1,2.4-.3l6.067,3.633a1.626,1.626,0,0,1,.323,2.549l-.98,1A9.907,9.907,0,0,1,99.253,215.9a35.931,35.931,0,0,1-19.739-19.762Z" transform="translate(0 -157.264)" fill="#fff" stroke="#fff" stroke-width="0.5"></path><path id="Path_2474" data-name="Path 2474" d="M379.737,168.551a1.325,1.325,0,0,0-.081-.265,1.376,1.376,0,0,0-.133-.23l-.086-.115-.086-.121-.1-.092-.115-.087h0a1.41,1.41,0,0,0-.248-.132,1.33,1.33,0,0,0-.265-.081h-.138a1.337,1.337,0,0,0-.283,0h-.138a1.332,1.332,0,0,0-.265.081,1.423,1.423,0,0,0-.248.132l-.115.086-.1.092-.092.1-.086.115h0a1.445,1.445,0,0,0-.213.519v.553a1.445,1.445,0,0,0,.213.519l.086.115.092.1.1.092.115.087h0a1.409,1.409,0,0,0,.248.132,1.38,1.38,0,0,0,.265.081h.56a1.443,1.443,0,0,0,.513-.213l.116-.086.1-.092.092-.1.087-.115h0a1.421,1.421,0,0,0,.133-.248,1.355,1.355,0,0,0,.08-.266,1.136,1.136,0,0,0,0-.138,1.391,1.391,0,0,0,0-.421Z" transform="translate(-270.013 -145.035)" fill="#fff"></path><path id="Path_2475" data-name="Path 2475" d="M437.716,168.651a1.436,1.436,0,1,1-1.436-1.436,1.436,1.436,0,0,1,1.436,1.436" transform="translate(-321.958 -144.851)" fill="#fff"></path><path id="Path_2476" data-name="Path 2476" d="M496.327,168.558a1.35,1.35,0,0,0-.08-.265,1.4,1.4,0,0,0-.133-.248l-.086-.115-.092-.1-.1-.092-.115-.086h0a1.505,1.505,0,0,0-.519-.213h-.138a1.509,1.509,0,0,0-.283,0h-.138a1.387,1.387,0,0,0-.265.081,1.409,1.409,0,0,0-.248.132l-.116.086-.1.092-.092.1-.075.133a1.492,1.492,0,0,0-.214.519v.553a1.5,1.5,0,0,0,.214.519l.086.115.092.1.1.092.115.087h0a1.434,1.434,0,0,0,.513.213h.559a1.434,1.434,0,0,0,.513-.213l.115-.087.1-.092.092-.1.086-.115h0a1.391,1.391,0,0,0,.133-.248,1.327,1.327,0,0,0,.081-.265,1.377,1.377,0,0,0,0-.138,1.339,1.339,0,0,0,0-.282,1.215,1.215,0,0,0-.006-.162Z" transform="translate(-374.597 -145.042)" fill="#fff"></path><path id="Path_2477" data-name="Path 2477" d="M309.643,23.8a18.066,18.066,0,1,0-33.907,8.69l-1.413,4.873h0a2.981,2.981,0,0,0,3.691,3.691l4.873-1.413A18.073,18.073,0,0,0,309.644,23.8ZM283.786,36.861a1.436,1.436,0,0,0-1.153-.144L277.195,38.3a.11.11,0,0,1-.138-.138l1.586-5.455a1.436,1.436,0,0,0-.144-1.153,15.2,15.2,0,1,1,5.289,5.3Z" transform="translate(-177.238 0)" fill="#fff" stroke="#fff" stroke-width="0.5"></path></g></svg>