<?xml version="1.0" encoding="UTF-8"?>
<svg xmlns="http://www.w3.org/2000/svg" id="Component_39_3" data-name="Component 39 – 3" width="94" height="94" viewBox="0 0 94 94">
  <path id="Rectangle_392" data-name="Rectangle 392" d="M20,0H84A10,10,0,0,1,94,10V64A30,30,0,0,1,64,94H10A10,10,0,0,1,0,84V20A20,20,0,0,1,20,0Z" fill="#25d366"></path>
  <g id="Group_318" data-name="Group 318" transform="translate(842.653 438.448)">
    <path id="Path_528" data-name="Path 528" d="M-820.285-365.86c1.023-3.845,2.181-7.875,3.251-11.895a8.109,8.109,0,0,0,.459-1.683,5.717,5.717,0,0,0-.689-1.454,25.792,25.792,0,0,1-2.792-12.162,24.952,24.952,0,0,1,3.786-13.271A26.011,26.011,0,0,1-798.676-418.6a28.17,28.17,0,0,1,3.939-.459,25.536,25.536,0,0,1,12.621,2.677,26.017,26.017,0,0,1,8.567,6.731,25.642,25.642,0,0,1,5.278,10.02,28.123,28.123,0,0,1,.115,13.539,26.33,26.33,0,0,1-13.653,16.943,26.346,26.346,0,0,1-12.468,2.83,25.87,25.87,0,0,1-12.047-3.213C-810.96-368.29-815.633-367.086-820.285-365.86Zm13.577-8.147a3.89,3.89,0,0,1,1.033-.268,4.745,4.745,0,0,1,1.033.574,21.162,21.162,0,0,0,8.528,2.792,21.75,21.75,0,0,0,11.015-1.606,21.361,21.361,0,0,0,7.534-5.392,21.7,21.7,0,0,0,4.781-8.185,23.53,23.53,0,0,0,.459-11.4,21.343,21.343,0,0,0-4.169-8.758,22.557,22.557,0,0,0-7.038-5.89,23.019,23.019,0,0,0-14-2.142,21.135,21.135,0,0,0-2.983.765,21.567,21.567,0,0,0-12.315,10.135,21.684,21.684,0,0,0-2.753,12.124,20.591,20.591,0,0,0,3.136,9.944c.169.278.677.9.688,1.186a5.38,5.38,0,0,1-.268.994c-.637,2.323-1.355,4.786-1.913,7C-811.512-372.792-809.159-373.351-806.708-374.007Z" transform="translate(0)" fill="#fff" fill-rule="evenodd"></path>
    <path id="Path_529" data-name="Path 529" d="M-787.851-388.183a6.415,6.415,0,0,1,2.295.115c.7.332,1.32,2.309,1.645,3.1.259.63.452,1.107.688,1.683a5.292,5.292,0,0,1,.612,1.8,3.385,3.385,0,0,1-.994,1.874c-.2.233-.429.523-.65.765s-.554.462-.574.841c-.025.487.5,1.17.765,1.568a17.664,17.664,0,0,0,7.535,6.463,3.787,3.787,0,0,0,1.645.574c.721-.1,1.314-1.194,1.721-1.683.174-.209.49-.54.765-.918s.457-.779.841-.842a3.8,3.8,0,0,1,1.836.612c1.183.551,2.084,1,3.289,1.606.488.245,1.339.483,1.53.918.353.8-.275,2.916-.535,3.4a6.756,6.756,0,0,1-3.9,2.716,9.75,9.75,0,0,1-5.354-.421,27.746,27.746,0,0,1-4.4-1.836,28.738,28.738,0,0,1-9.676-9.026,17.837,17.837,0,0,1-2.257-3.978,9.173,9.173,0,0,1-.267-5.355,7.449,7.449,0,0,1,1.033-2.1A4.042,4.042,0,0,1-787.851-388.183Z" transform="translate(-15.491 -16.65)" fill="#fff" fill-rule="evenodd"></path>
  </g>
</svg>
